<svg id="Ebene_1" data-name="Ebene 1" xmlns="http://www.w3.org/2000/svg" viewBox="0 0 150 74"><defs><style>.cls-1{fill:#505456;}</style></defs><title>MF_Wortmarke_150x74_Zeichenfläche 1 Kopie</title><path class="cls-1" d="M1.07,37c0-1.15,0-2.21-.07-3.16H3.18l0,1.68a3.48,3.48,0,0,1,3.19-1.92,3,3,0,0,1,3.09,2.07A3.81,3.81,0,0,1,13,33.56c2.54,0,3.45,1.68,3.45,4.32v7H14.19V38c0-1.58-.33-2.86-2-2.86s-2.32,1.32-2.32,3.17v6.6H7.64V38.06c0-1.63-.31-2.91-2-2.91S3.27,36.8,3.27,38.39v6.53H1.07Z"/><path class="cls-1" d="M18.92,39.6c0-3.42,1.25-6,4.87-6,3.37,0,4.48,2.38,4.43,6.17H21.1c0,2.67.77,4,2.6,4,1.41,0,2.19-.82,2.34-2.41l2.09.31c-.39,2.38-2,3.53-4.47,3.53C20.19,45.16,18.92,42.93,18.92,39.6Zm2.2-1.26h4.94c0-1.74-.6-3.3-2.34-3.3S21.3,36.29,21.12,38.34Z"/><path class="cls-1" d="M30,41.81l2.19-.33c0,1.45.7,2.27,2,2.27a1.8,1.8,0,0,0,2-1.74c0-1.17-1-1.57-2.54-2.12-2.07-.75-3.44-1.28-3.44-3.24,0-2.21,2-3.09,4.11-3.09,2.44,0,3.68,1,3.83,3.07l-2.16.3c.05-1.39-.64-2-1.81-2-.92,0-1.8.46-1.8,1.48s.81,1.41,2.24,1.94c2.17.79,3.77,1.19,3.77,3.35,0,2.4-1.91,3.44-4.29,3.44C31.49,45.16,30.1,44,30,41.81Z"/><path class="cls-1" d="M40.16,41.81l2.19-.33c0,1.45.7,2.27,2,2.27a1.8,1.8,0,0,0,2-1.74c0-1.17-1-1.57-2.54-2.12-2.07-.75-3.44-1.28-3.44-3.24,0-2.21,2-3.09,4.1-3.09,2.45,0,3.69,1,3.84,3.07l-2.16.3c0-1.39-.64-2-1.81-2-.92,0-1.81.46-1.81,1.48s.82,1.41,2.25,1.94c2.16.79,3.77,1.19,3.77,3.35,0,2.4-1.91,3.44-4.3,3.44C41.64,45.16,40.25,44,40.16,41.81Z"/><path class="cls-1" d="M50.36,39.6c0-3.42,1.25-6,4.87-6,3.37,0,4.48,2.38,4.43,6.17H52.54c0,2.67.77,4,2.6,4,1.41,0,2.18-.82,2.34-2.41l2.09.31c-.39,2.38-2,3.53-4.47,3.53C51.63,45.16,50.36,42.93,50.36,39.6Zm2.2-1.26H57.5c0-1.74-.6-3.3-2.34-3.3S52.74,36.29,52.56,38.34Z"/><path class="cls-1" d="M68.78,35.32H66.86V33.8h1.92V32.35c0-2.27.75-3.51,3-3.51.38,0,.89,0,1.63.09v1.56c-.22,0-.44,0-.74,0-1.31,0-1.64.6-1.64,1.9V33.8h2.25v1.52H71v9.6h-2.2Z"/><path class="cls-1" d="M75.2,36.56c0-.33,0-2.43-.07-2.76h2.14l.07,1.72a3.42,3.42,0,0,1,3.11-1.92,1.85,1.85,0,0,1,.48.07v2a4,4,0,0,0-.72-.09c-1.88,0-2.81,1.17-2.81,3.22v6.11H75.2C75.22,43.09,75.22,37.38,75.2,36.56Z"/><path class="cls-1" d="M81.86,41.85c0-3.24,3.07-3.79,6.13-3.79h.58v-.58c0-1.56-.44-2.53-2-2.53a1.73,1.73,0,0,0-1.94,1.85l-2.16-.28c.16-2.12,1.83-3,4.1-3,2.87,0,4.13,1.06,4.13,4v3.53c0,1.43.06,2.76.17,3.84H88.81c0-.25-.07-1.17-.11-1.57a3.7,3.7,0,0,1-3.38,1.81A3.14,3.14,0,0,1,81.86,41.85Zm6.71-2.49h-.78c-2.38,0-3.72.73-3.72,2.36a1.88,1.88,0,0,0,2,2c2,0,2.54-1.57,2.54-3.78Z"/><path class="cls-1" d="M93.78,36.21c0-.71,0-1.5-.07-2.41h2.21l0,1.66a3.72,3.72,0,0,1,3.33-1.9c2.36,0,3.53,1.37,3.53,4v7.37h-2.21V38.34c0-1.74-.18-3.19-2.07-3.19-1.74,0-2.54,1.5-2.54,3.68v6.09h-2.2Z"/><path class="cls-1" d="M106,29h2.22v16H106Zm2.25,9.66,4.14-4.83H115l-4.31,4.77,4.72,6.35H112.7Z"/><path class="cls-1" d="M117.67,35.32h-1.92V33.8h1.92V32.35c0-2.27.75-3.51,3-3.51.37,0,.88,0,1.63.09v1.56c-.22,0-.44,0-.75,0-1.3,0-1.63.6-1.63,1.9V33.8h2.25v1.52h-2.25v9.6h-2.21Z"/><path class="cls-1" d="M124.09,41.3V33.8h2.23v6.64c0,1.74.18,3.18,2.1,3.18,1.67,0,2.49-1.28,2.49-3.53V33.8h2.2v7.92c0,1,0,2,.09,3.2H131L131,43.28a3.78,3.78,0,0,1-3.26,1.88C125.28,45.16,124.09,43.86,124.09,41.3Z"/><path class="cls-1" d="M136.27,36.56c0-.33,0-2.43-.06-2.76h2.13l.07,1.72a3.43,3.43,0,0,1,3.11-1.92,1.93,1.93,0,0,1,.49.07v2a4.14,4.14,0,0,0-.73-.09c-1.88,0-2.8,1.17-2.8,3.22v6.11h-2.21C136.29,43.09,136.29,37.38,136.27,36.56Z"/><path class="cls-1" d="M144.44,42.29V35.35h-1.92V33.8h1.92v-2l2.22-.92v3h2.27v1.55h-2.27v6.32c0,1.22.14,1.73,1.39,1.73.18,0,.64,0,.95-.09v1.58a10.26,10.26,0,0,1-1.7.11C145.27,45,144.44,44.34,144.44,42.29Z"/></svg>