<svg id="Layer_1" data-name="Layer 1" xmlns="http://www.w3.org/2000/svg" width="460.38" height="280.36" viewBox="0 0 460.38 280.36">
  <polygon points="308.89 141.31 308.89 190.46 364.74 258.88 443.52 258.88 347.56 141.31 308.89 141.31" style="fill: #1a1a1a"/>
  <path d="M91.16,61.77h9.56c9,0,16.44,6.29,16.44,14s-7.47,14-16.44,14H91.16V133.4h26.91c38.07-2.19,62.45-27.62,62.45-58.7,0-32.51-26.67-58.87-67.8-58.87H91.16Z" style="fill: #1a1a1a"/>
  <polygon points="308.89 133.4 347.56 133.4 443.52 15.83 364.74 15.83 308.89 84.25 308.89 133.4" style="fill: #ff5f00"/>
  <polygon points="300.99 133.4 300.99 84.25 245.14 15.83 166.36 15.83 262.32 133.4 300.99 133.4" style="fill: #1a1a1a"/>
  <polygon points="300.99 141.31 262.32 141.31 194.26 224.7 126.19 141.31 91.16 141.31 91.16 194.9 143.38 258.88 222.16 258.88 245.14 258.88 300.99 190.46 300.99 141.31" style="fill: #1a1a1a"/>
  <polygon points="83.25 133.4 83.25 15.83 69.66 15.83 16.55 15.83 16.55 133.4 83.25 133.4" style="fill: #1a1a1a"/>
  <rect x="16.55" y="141.31" width="66.7" height="117.81" style="fill: #1a1a1a"/>
</svg>
